:FULLY-SPECIFIED
:FORCE-ALL-JOINTS-BE-3DOF
:DEGREES
1835
root 6.81757 13.8535 27.7389 1058.82 52.0972 336.792
lfemur -53.395 29.656 2.62118
ltibia 69.2223 0 0
lfoot -6.74647 -9.4069 0
ltoes -23.702 0 0
rfemur 3.93783 -3.11763 18.1575
rtibia 48.7822 0 0
rfoot -24.7709 -31.2875 0
rtoes -26.5227 0 0
lowerback 13.7672 4.41727 6.1197
upperback -0.348882 7.42267 5.33024
thorax -8.05491 3.51164 0.752583
lowerneck -4.85395 8.17283 2.16203
upperneck 8.43997 10.8727 -0.483842
head 3.77086 5.44385 0.00153002
lclavicle -2.99988e-14 -7.0233e-15 0
lhumerus 61.2621 18.9885 106.563
lradius 10.1425 0 0
lwrist -85.4122 0 0
lhand -31.187 42.193 0
lfingers 7.12502 0 0
lthumb -4.46367 72.1259 0
rclavicle -2.99988e-14 -7.0233e-15 0
rhumerus -71.1547 13.0151 -78.8233
rradius 126.162 0 0
rwrist -161.522 0 0
rhand -75.0311 -342.658 0
rfingers 7.12502 0 0
rthumb -46.2959 354.42 0
1836
root 6.84527 13.8504 27.7511 1058.83 52.1041 336.801
lfemur -53.3952 29.6407 2.61819
ltibia 69.221 0 0
lfoot -6.74354 -9.38848 0
ltoes -23.7 0 0
rfemur 3.93261 -3.12905 18.1542
rtibia 48.7948 0 0
rfoot -24.7924 -31.2822 0
rtoes -26.5295 0 0
lowerback 13.7751 4.42373 6.11629
upperback -0.348661 7.4307 5.32413
thorax -8.0584 3.51526 0.745783
lowerneck -4.83385 8.20926 2.18504
upperneck 8.42323 10.923 -0.514255
head 3.76806 5.46855 -0.0103473
lclavicle -3.04788e-14 -7.53925e-15 0
lhumerus 61.2474 18.912 106.49
lradius 10.1519 0 0
lwrist -85.3204 0 0
lhand -31.1841 42.1888 0
lfingers 7.12502 0 0
lthumb -4.46093 72.1218 0
rclavicle -3.04788e-14 -7.53925e-15 0
rhumerus -71.1756 12.9962 -78.8589
rradius 126.159 0 0
rwrist -161.317 0 0
rhand -74.7976 -343.148 0
rfingers 7.12502 0 0
rthumb -46.0759 353.866 0
1837
root 6.87296 13.8473 27.7632 1058.83 52.1115 336.829
lfemur -53.3674 29.5966 2.62291
ltibia 69.1857 0 0
lfoot -6.70683 -9.34869 0
ltoes -23.6613 0 0
rfemur 3.90296 -3.14391 18.1533
rtibia 48.859 0 0
rfoot -24.8421 -31.2765 0
rtoes -26.4926 0 0
lowerback 13.7926 4.4322 6.10216
upperback -0.343972 7.4395 5.31307
thorax -8.06294 3.51947 0.738833
lowerneck -4.81176 8.24624 2.20453
upperneck 8.40467 10.9744 -0.544424
head 3.76496 5.49381 -0.0215176
lclavicle -3.16927e-14 -8.32225e-15 0
lhumerus 61.1852 18.7508 106.259
lradius 10.1779 0 0
lwrist -85.042 0 0
lhand -31.1779 42.1971 0
lfingers 7.12502 0 0
lthumb -4.45493 72.1303 0
rclavicle -3.16927e-14 -8.32225e-15 0
rhumerus -71.1923 12.9652 -78.8819
rradius 126.15 0 0
rwrist -161.214 0 0
rhand -74.4206 -343.426 0
rfingers 7.12502 0 0
rthumb -45.7207 353.486 0
1838
root 6.90066 13.8442 27.7754 1058.84 52.1235 336.868
lfemur -53.3336 29.536 2.62734
ltibia 69.142 0 0
lfoot -6.66066 -9.29186 0
ltoes -23.6131 0 0
rfemur 3.86439 -3.16714 18.1507
rtibia 48.9431 0 0
rfoot -24.9123 -31.2672 0
rtoes -26.4505 0 0
lowerback 13.8175 4.44543 6.08338
upperback -0.338142 7.45383 5.29684
thorax -8.07004 3.52623 0.727317
lowerneck -4.77582 8.30762 2.23858
upperneck 8.37455 11.0597 -0.594814
head 3.75991 5.53567 -0.0404491
lclavicle -3.33898e-14 -9.50856e-15 0
lhumerus 61.1027 18.5199 105.945
lradius 10.2137 0 0
lwrist -84.6609 0 0
lhand -31.1691 42.2055 0
lfingers 7.12502 0 0
lthumb -4.44637 72.1388 0
rclavicle -3.33898e-14 -9.50856e-15 0
rhumerus -71.2219 12.9189 -78.9258
rradius 126.138 0 0
rwrist -160.997 0 0
rhand -73.8561 -343.983 0
rfingers 7.12502 0 0
rthumb -45.1887 352.775 0
1839
root 6.92835 13.8411 27.7875 1058.87 52.1446 336.906
lfemur -53.3155 29.4709 2.6235
ltibia 69.1156 0 0
lfoot -6.62935 -9.22236 0
ltoes -23.5826 0 0
rfemur 3.83244 -3.20369 18.1424
rtibia 49.0152 0 0
rfoot -24.9956 -31.2509 0
rtoes -26.4416 0 0
lowerback 13.8476 4.46616 6.06601
upperback -0.3345 7.47845 5.27523
thorax -8.08121 3.53749 0.706816
lowerneck -4.71419 8.41727 2.30527
upperneck 8.32312 11.2113 -0.685892
head 3.75131 5.61013 -0.0756097
lclavicle -3.53191e-14 -1.12344e-14 0
lhumerus 61.0268 18.234 105.62
lradius 10.2529 0 0
lwrist -84.2609 0 0
lhand -31.1583 42.2013 0
lfingers 7.12502 0 0
lthumb -4.43597 72.1348 0
rclavicle -3.53191e-14 -1.12344e-14 0
rhumerus -71.2818 12.8542 -79.0243
rradius 126.124 0 0
rwrist -160.45 0 0
rhand -73.06 -345.312 0
rfingers 7.12502 0 0
rthumb -44.4385 351.23 0
1840
root 6.95605 13.8381 27.7996 1058.9 52.179 336.934
lfemur -53.3349 29.4134 2.60341
ltibia 69.132 0 0
lfoot -6.6372 -9.14454 0
ltoes -23.5972 0 0
rfemur 3.82262 -3.25849 18.1239
rtibia 49.0438 0 0
rfoot -25.0845 -31.2245 0
rtoes -26.5043 0 0
lowerback 13.8808 4.49713 6.05614
upperback -0.336375 7.51811 5.24801
thorax -8.09795 3.55522 0.672914
lowerneck -4.61502 8.59903 2.4227
upperneck 8.24064 11.462 -0.838123
head 3.73752 5.73322 -0.135468
lclavicle -3.72297e-14 -1.36362e-14 0
lhumerus 60.9846 17.9079 105.36
lradius 10.2889 0 0
lwrist -83.926 0 0
lhand -31.1464 42.1721 0
lfingers 7.12502 0 0
lthumb -4.42445 72.1058 0
rclavicle -3.72297e-14 -1.36362e-14 0
rhumerus -71.3892 12.7679 -79.2109
rradius 126.11 0 0
rwrist -159.357 0 0
rhand -71.9882 -347.905 0
rfingers 7.12502 0 0
rthumb -43.4283 348.347 0
